<svg width="1000" height="166" viewBox="0 0 1000 166" fill="none" xmlns="http://www.w3.org/2000/svg">
<path d="M74.5591 7.51223C93.481 7.51223 108.994 12.1035 121.098 21.2861C133.203 30.4688 140.507 42.8514 143.011 58.434H99.8114C97.5854 54.3992 94.3158 51.1992 90.0028 48.834C85.6895 46.4688 80.6113 45.2862 74.7678 45.2862C64.7504 45.2862 56.7504 48.6948 50.7678 55.5122C44.9243 62.1905 42.0026 71.1644 42.0026 82.434C42.0026 95.234 45.133 104.973 51.3939 111.651C57.7939 118.19 67.1156 121.46 79.3591 121.46C86.3156 121.46 92.4375 119.79 97.7245 116.451C103.011 113.112 107.185 108.173 110.246 101.634H69.3417V72.4166H144.264V113.112C138.977 125.356 130.49 135.86 118.803 144.625C107.255 153.251 92.6462 157.564 74.9765 157.564C59.9504 157.564 46.8026 154.434 35.533 148.173C24.2635 141.773 15.5678 132.869 9.44607 121.46C3.46347 110.051 0.472168 97.0427 0.472168 82.434C0.472168 67.8253 3.46347 54.8861 9.44607 43.6166C15.5678 32.2079 24.1939 23.3731 35.3243 17.1122C46.4548 10.7122 59.533 7.51223 74.5591 7.51223ZM233.759 6.46875C247.672 6.46875 260.333 9.73832 271.742 16.2775C283.29 22.6775 292.333 31.6514 298.872 43.1992C305.551 54.747 308.89 67.7557 308.89 82.2253C308.89 96.6949 305.551 109.704 298.872 121.251C292.194 132.799 283.081 141.843 271.533 148.382C260.124 154.782 247.533 157.982 233.759 157.982C219.985 157.982 207.324 154.782 195.777 148.382C184.229 141.843 175.116 132.799 168.438 121.251C161.759 109.704 158.42 96.6949 158.42 82.2253C158.42 67.7557 161.759 54.747 168.438 43.1992C175.116 31.6514 184.229 22.6775 195.777 16.2775C207.324 9.73832 219.985 6.46875 233.759 6.46875ZM233.759 44.4514C223.324 44.4514 215.116 47.8601 209.133 54.6775C203.151 61.3557 200.159 70.5383 200.159 82.2253C200.159 93.634 203.151 102.747 209.133 109.564C215.116 116.382 223.324 119.79 233.759 119.79C244.055 119.79 252.194 116.382 258.177 109.564C264.159 102.747 267.151 93.634 267.151 82.2253C267.151 70.5383 264.159 61.3557 258.177 54.6775C252.333 47.8601 244.194 44.4514 233.759 44.4514Z" fill="#231F51"/>
<path d="M437.459 113.947C437.459 122.156 435.372 129.599 431.198 136.277C427.024 142.956 420.902 148.243 412.833 152.138C404.763 156.034 395.094 157.982 383.824 157.982C366.711 157.982 352.589 153.877 341.459 145.669C330.468 137.46 324.485 125.773 323.511 110.608H367.129C367.546 115.756 369.146 119.582 371.929 122.086C374.711 124.59 378.12 125.843 382.155 125.843C385.772 125.843 388.555 124.938 390.502 123.13C392.589 121.321 393.633 118.747 393.633 115.408C393.633 110.956 391.615 107.547 387.581 105.182C383.546 102.677 377.146 99.9644 368.381 97.0427C359.059 93.8427 351.337 90.7122 345.215 87.6514C339.233 84.5905 334.015 79.9992 329.563 73.8775C325.25 67.7557 323.094 59.8948 323.094 50.2948C323.094 41.1122 325.459 33.2514 330.189 26.7122C334.92 20.034 341.389 15.0253 349.598 11.6861C357.807 8.20788 367.129 6.46875 377.563 6.46875C394.537 6.46875 408.033 10.5035 418.05 18.5731C428.207 26.5035 433.772 37.7035 434.746 52.1731H390.711C390.155 47.5818 388.694 44.1731 386.329 41.947C384.102 39.7209 381.111 38.6079 377.355 38.6079C374.155 38.6079 371.65 39.4427 369.842 41.1122C368.033 42.7818 367.129 45.2861 367.129 48.6253C367.129 52.7992 369.076 56.0688 372.972 58.434C377.007 60.7992 383.268 63.4427 391.755 66.3644C401.076 69.7035 408.798 72.9731 414.92 76.1731C421.042 79.3731 426.329 84.034 430.781 90.1557C435.233 96.2775 437.459 104.208 437.459 113.947ZM496.574 107.06V156.521H455.461V8.76441H516.817C534.626 8.76441 548.191 13.2862 557.513 22.3296C566.974 31.234 571.704 43.1992 571.704 58.2253C571.704 67.547 569.617 75.8948 565.443 83.2688C561.269 90.6427 555.009 96.4862 546.661 100.799C538.452 104.973 528.504 107.06 516.817 107.06H496.574ZM512.226 74.7122C524.191 74.7122 530.174 69.2166 530.174 58.2253C530.174 47.3731 524.191 41.947 512.226 41.947H496.574V74.7122H512.226ZM628.843 41.5296V65.947H676.635V97.0427H628.843V123.756H682.895V156.521H587.73V8.76441H682.895V41.5296H628.843ZM794.943 131.895H742.561L734.422 156.521H691.222L745.274 9.3905H792.648L846.491 156.521H803.082L794.943 131.895ZM784.717 101.008L768.856 53.0079L752.787 101.008H784.717ZM938.513 80.9731L995.695 156.521H946.235L899.695 91.1992V156.521H858.586V8.76441H899.695V72.6253L946.652 8.76441H995.695L938.513 80.9731Z" fill="#FF567A"/>
</svg>
